<svg xmlns="http://www.w3.org/2000/svg" viewBox="20 20 321 321">
  <g transform="translate(-20,-65) rotate(180, 180, 250)" fill="#fff">
    <path d="m 245.56209,244.87909 c -0.21814,8.36945 -6.68143,14.83274 -15.05088,15.05088 -8.36809,0.21814 -14.84157,-7.01033 -15.05087,-15.05088 -0.21814,-8.36877 7.00965,-14.84157 15.05087,-15.05155 8.36877,-0.21814 14.84157,7.01033 15.05088,15.05155 0.0795,3.06142 4.8371,3.06957 4.75691,0 -0.28677,-10.99119 -8.8166,-19.52169 -19.80779,-19.80847 -10.98915,-0.28677 -19.53256,9.2488 -19.80779,19.80847 -0.28677,10.98847 9.2488,19.53257 19.80779,19.80779 10.98847,0.28678 19.53257,-9.24812 19.80779,-19.80779 0.0802,-3.06889 -4.6774,-3.06141 -4.75691,0 z" />
    <path d="m 236.79578,226.89592 c 0,1.04788 -0.84945,1.89733 -1.89665,1.89733 h -8.85398 c -1.0472,0 -1.89665,-0.84945 -1.89665,-1.89733 v -4.10997 c 0,-1.04788 0.84945,-1.89733 1.89665,-1.89733 h 8.85398 c 1.0472,0 1.89665,0.84945 1.89665,1.89733 z" />
    <path d="m 236.79578,266.00862 c 0,1.04788 -0.84945,1.89733 -1.89665,1.89733 h -8.85398 c -1.0472,0 -1.89665,-0.84945 -1.89665,-1.89733 v -4.11065 c 0,-1.0472 0.84945,-1.89733 1.89665,-1.89733 h 8.85398 c 1.0472,0 1.89665,0.84945 1.89665,1.89733 z" />
    <path d="m 238.26906,269.02383 c 0,1.14302 -0.6218,2.06926 -1.3897,2.06926 h -12.89599 c -0.76722,0 -1.3897,-0.92624 -1.3897,-2.06926 v -0.57559 c 0,-1.1437 0.62248,-2.06994 1.3897,-2.06994 h 12.89599 c 0.7679,0 1.3897,0.92624 1.3897,2.06994 z" />
    <path d="m 228.49632,259.85114 c -7.9454,0 -15.89217,0 -23.83757,0 -1.30951,0 -2.61834,0 -3.92718,0 -0.37647,0 0.26843,0.78489 0.26843,0.15086 0,-0.49676 0,-0.99419 0,-1.49163 0,-4.52179 0,-9.04425 0,-13.56604 0,-4.40354 0,-8.80777 0,-13.21199 0,-0.55927 0,-1.11855 0,-1.67851 0,-0.81751 -0.036,-0.0156 -0.3724,-0.0156 1.18176,0 2.36419,0 3.5473,0 8.10714,0 16.21428,0 24.3221,0 3.06753,0 3.06753,-4.75691 0,-4.75691 -8.40615,0 -16.81229,0 -25.21844,0 -3.15655,0 -7.03547,0.21066 -7.03547,4.47354 0,3.72194 0,7.44321 0,11.16515 0,5.18776 0,10.37551 0,15.56258 0,3.21092 -0.37512,8.12549 4.29889,8.12549 8.40614,0 16.81229,0 25.21844,0 0.91196,0 1.82461,0 2.7359,0 3.06753,0 3.06753,-4.75691 0,-4.75691 z" />
    <path d="m 190.04143,227.60742 c 0,11.54027 0,23.08122 0,34.62218 0,3.06753 4.75691,3.06753 4.75691,0 0,-11.54028 0,-23.08123 0,-34.62218 0,-3.06753 -4.75691,-3.06753 -4.75691,0 z" />
  </g>
  <g fill="#fff">
    <path d="m 144.66532,231.33781 c -11.53806,-2.26497 -23.07614,-4.52926 -34.6148,-6.79423 -3.71313,-0.72849 -5.30297,5.81907 -1.56509,6.55299 11.53806,2.26497 23.07613,4.52926 34.61479,6.79423 3.71316,0.72849 5.30297,-5.81974 1.5651,-6.55299 z" />
    <path d="m 104.36117,244.74067 c 13.31664,-2.26429 26.6326,-4.52858 39.94856,-6.79355 4.31384,-0.73325 2.47835,-7.28148 -1.80627,-6.55299 -13.31664,2.26429 -26.6326,4.52858 -39.94856,6.79355 -4.31384,0.73325 -2.47835,7.28148 1.80627,6.55299 z" />
    <path d="m 144.30973,245.30402 c -13.31596,-2.26497 -26.63192,-4.52926 -39.94856,-6.79423 -4.2853,-0.72849 -6.12011,5.81907 -1.80627,6.55299 13.31596,2.26497 26.63192,4.52926 39.94856,6.79423 4.2853,0.72849 6.12011,-5.81974 1.80627,-6.55299 z" />
    <path d="m 144.30973,254.79203 c -13.31596,-2.26429 -26.63192,-4.52858 -39.94856,-6.79287 -4.2853,-0.72849 -6.12011,5.81906 -1.80627,6.55298 13.31596,2.2643 26.63192,4.52859 39.94856,6.79288 4.2853,0.72848 6.12011,-5.81975 1.80627,-6.55299 z" />
    <path d="m 144.30973,264.28003 c -13.31596,-2.26497 -26.63192,-4.52926 -39.94856,-6.79355 -4.2853,-0.72849 -6.12011,5.81907 -1.80627,6.55299 13.31596,2.26497 26.63192,4.52926 39.94856,6.79355 4.2853,0.72849 6.12011,-5.81974 1.80627,-6.55299 z" />
    <path d="m 144.30973,273.87473 c -13.31596,-2.26429 -26.63192,-4.52858 -39.94856,-6.79287 -4.2853,-0.72849 -6.12011,5.81906 -1.80627,6.55298 13.31596,2.26429 26.63192,4.52859 39.94856,6.79288 4.2853,0.72848 6.12011,-5.81975 1.80627,-6.55299 z" />     
    </g>
    <g fill="#fff">
      <path d="m223.44113 175.18051c-25.63833 0-46.54051 20.07019-46.54051 44.86948 0 24.79929 20.90218 44.86816 46.54051 44.86816 25.63834 0 46.54184-20.06887 46.54184-44.86816 0-24.79929-20.9035-44.86948-46.54184-44.86948zm0 4.07735c23.51757 0 42.46448 18.28243 42.46448 40.79213 0 22.5097-18.94691 40.79081-42.46448 40.79081-23.51756 0-42.46315-18.28111-42.46315-40.79081 0-22.5097 18.94559-40.79213 42.46315-40.79213z"/>
      <path d="m198.74676 191.55566a1.3592541 1.3592541 0 1 0 0 2.71824h49.90379a1.3592541 1.3592541 0 1 0 0-2.71824z"/>
      <path d="m212.01542 184.33933a1.3592541 1.3592541 0 1 0 0 2.71823h22.89397a1.3592541 1.3592541 0 1 0 0-2.71823z"/>
      <path d="m192.92936 200.04484a1.3592541 1.3592541 0 1 0 0 2.71824h59.9711a1.3592541 1.3592541 0 1 0 0-2.71824z"/>
      <path d="m188.1552 208.684a1.3592541 1.3592541 0 1 0 0 2.71824h70.99136a1.3592541 1.3592541 0 1 0 0-2.71824z"/>
      <path d="m185.84045 218.12881a1.3592541 1.3592541 0 1 0 0 2.71824h76.39996a1.3592541 1.3592541 0 1 0 0-2.71824z"/>
      <path d="m187.69729 228.22531a1.3592541 1.3592541 0 1 0 0 2.71823h70.99003a1.3592541 1.3592541 0 1 0 0-2.71823z"/>
      <path d="m193.97126 236.49947a1.3592541 1.3592541 0 1 0 0 2.71824h59.96977a1.3592541 1.3592541 0 1 0 0-2.71824z"/>
      <path d="m199.26041 244.98865a1.3592541 1.3592541 0 1 0 0 2.71824h49.90512a1.3592541 1.3592541 0 1 0 0-2.71824z"/>
      <path d="m214.30893 252.96285a1.3592541 1.3592541 0 1 0 0 2.71824h22.8953a1.3592541 1.3592541 0 1 0 0-2.71824z"/>
    </g>
    <g stroke="#fff" stroke-width="6.79559" stroke-linecap="round" >
      <line x1="145" y1="277" x2="225" y2="277"/>
      <line x1="225" y1="277" x2="225" y2="267"/>
      <line x1="225" y1="175" x2="225" y2="155"/>
      <line x1="225" y1="155" x2="110" y2="155"/>
      <line x1="110" y1="155" x2="110" y2="165"/>
      <line x1="110" y1="215" x2="110" y2="225"/>
    </g>
  <rect x="77.5" y="137.5" width="205" height="155" fill="none" stroke="#fff" stroke-width="6.79559" rx="5" ry="5"/>  
  <path d="m 43.982456,290.84073 a 2.6641393,2.50025 0 1 0 0,5 H 317.05023 a 2.6641393,2.50025 0 1 0 0,-5 z"/>
</svg>
